<svg xmlns="http://www.w3.org/2000/svg" xmlns:xlink="http://www.w3.org/1999/xlink" width="333" zoomAndPan="magnify" viewBox="0 0 249.75 112.499997" height="150" preserveAspectRatio="xMidYMid meet" version="1.0"><defs><g/></defs><g fill="#1d4154" fill-opacity="1"><g transform="translate(75.00271, 16.679614)"><g><path d="M 7.078125 -4.46875 C 7.578125 -4.320312 7.96875 -4.066406 8.25 -3.703125 C 8.539062 -3.335938 8.6875 -2.878906 8.6875 -2.328125 C 8.6875 -1.578125 8.40625 -1 7.84375 -0.59375 C 7.289062 -0.195312 6.472656 0 5.390625 0 L 1.296875 0 L 1.296875 -8.609375 L 5.15625 -8.609375 C 6.132812 -8.609375 6.890625 -8.410156 7.421875 -8.015625 C 7.960938 -7.617188 8.234375 -7.070312 8.234375 -6.375 C 8.234375 -5.925781 8.128906 -5.535156 7.921875 -5.203125 C 7.710938 -4.878906 7.429688 -4.632812 7.078125 -4.46875 Z M 2.515625 -7.609375 L 2.515625 -4.859375 L 5.046875 -4.859375 C 5.671875 -4.859375 6.15625 -4.972656 6.5 -5.203125 C 6.84375 -5.441406 7.015625 -5.785156 7.015625 -6.234375 C 7.015625 -6.679688 6.84375 -7.019531 6.5 -7.25 C 6.15625 -7.488281 5.671875 -7.609375 5.046875 -7.609375 Z M 5.34375 -1 C 6.039062 -1 6.566406 -1.113281 6.921875 -1.34375 C 7.273438 -1.570312 7.453125 -1.929688 7.453125 -2.421875 C 7.453125 -3.378906 6.75 -3.859375 5.34375 -3.859375 L 2.515625 -3.859375 L 2.515625 -1 Z M 5.34375 -1 "/></g></g></g><g fill="#1d4154" fill-opacity="1"><g transform="translate(84.317079, 16.679614)"><g><path d="M 7.53125 -1.0625 L 7.53125 0 L 1.296875 0 L 1.296875 -8.609375 L 7.359375 -8.609375 L 7.359375 -7.53125 L 2.515625 -7.53125 L 2.515625 -4.890625 L 6.84375 -4.890625 L 6.84375 -3.84375 L 2.515625 -3.84375 L 2.515625 -1.0625 Z M 7.53125 -1.0625 "/></g></g></g><g fill="#1d4154" fill-opacity="1"><g transform="translate(92.560978, 16.679614)"><g><path d="M 9.265625 0 L 9.265625 -6.265625 L 6.15625 -1.046875 L 5.578125 -1.046875 L 2.46875 -6.234375 L 2.46875 0 L 1.296875 0 L 1.296875 -8.609375 L 2.296875 -8.609375 L 5.890625 -2.5625 L 9.4375 -8.609375 L 10.4375 -8.609375 L 10.453125 0 Z M 9.265625 0 "/></g></g></g><g fill="#1d4154" fill-opacity="1"><g transform="translate(104.3116, 16.679614)"><g><path d="M 0.703125 -3.890625 L 4.015625 -3.890625 L 4.015625 -2.859375 L 0.703125 -2.859375 Z M 0.703125 -3.890625 "/></g></g></g><g fill="#1d4154" fill-opacity="1"><g transform="translate(109.024152, 16.679614)"><g><path d="M 8.765625 -8.609375 L 5 0 L 3.78125 0 L -0.015625 -8.609375 L 1.3125 -8.609375 L 4.421875 -1.53125 L 7.53125 -8.609375 Z M 8.765625 -8.609375 "/></g></g></g><g fill="#1d4154" fill-opacity="1"><g transform="translate(117.78483, 16.679614)"><g><path d="M 1.296875 -8.609375 L 2.515625 -8.609375 L 2.515625 0 L 1.296875 0 Z M 1.296875 -8.609375 "/></g></g></g><g fill="#1d4154" fill-opacity="1"><g transform="translate(121.599171, 16.679614)"><g><path d="M 8.6875 -8.609375 L 8.6875 0 L 7.6875 0 L 2.515625 -6.421875 L 2.515625 0 L 1.296875 0 L 1.296875 -8.609375 L 2.296875 -8.609375 L 7.46875 -2.1875 L 7.46875 -8.609375 Z M 8.6875 -8.609375 "/></g></g></g><g fill="#1d4154" fill-opacity="1"><g transform="translate(131.590282, 16.679614)"><g><path d="M 1.296875 -8.609375 L 4.921875 -8.609375 C 5.828125 -8.609375 6.632812 -8.425781 7.34375 -8.0625 C 8.050781 -7.707031 8.597656 -7.203125 8.984375 -6.546875 C 9.367188 -5.898438 9.5625 -5.148438 9.5625 -4.296875 C 9.5625 -3.453125 9.367188 -2.703125 8.984375 -2.046875 C 8.597656 -1.398438 8.050781 -0.894531 7.34375 -0.53125 C 6.632812 -0.175781 5.828125 0 4.921875 0 L 1.296875 0 Z M 4.84375 -1.0625 C 5.539062 -1.0625 6.148438 -1.195312 6.671875 -1.46875 C 7.203125 -1.738281 7.613281 -2.117188 7.90625 -2.609375 C 8.195312 -3.097656 8.34375 -3.660156 8.34375 -4.296875 C 8.34375 -4.941406 8.195312 -5.503906 7.90625 -5.984375 C 7.613281 -6.472656 7.203125 -6.851562 6.671875 -7.125 C 6.148438 -7.394531 5.539062 -7.53125 4.84375 -7.53125 L 2.515625 -7.53125 L 2.515625 -1.0625 Z M 4.84375 -1.0625 "/></g></g></g><g fill="#1d4154" fill-opacity="1"><g transform="translate(141.753653, 16.679614)"><g><path d="M 5.171875 0.09375 C 4.304688 0.09375 3.523438 -0.09375 2.828125 -0.46875 C 2.128906 -0.851562 1.582031 -1.378906 1.1875 -2.046875 C 0.789062 -2.722656 0.59375 -3.472656 0.59375 -4.296875 C 0.59375 -5.128906 0.789062 -5.878906 1.1875 -6.546875 C 1.582031 -7.222656 2.128906 -7.75 2.828125 -8.125 C 3.523438 -8.507812 4.304688 -8.703125 5.171875 -8.703125 C 6.035156 -8.703125 6.816406 -8.507812 7.515625 -8.125 C 8.210938 -7.75 8.753906 -7.226562 9.140625 -6.5625 C 9.535156 -5.894531 9.734375 -5.140625 9.734375 -4.296875 C 9.734375 -3.460938 9.535156 -2.710938 9.140625 -2.046875 C 8.753906 -1.378906 8.210938 -0.851562 7.515625 -0.46875 C 6.816406 -0.09375 6.035156 0.09375 5.171875 0.09375 Z M 5.171875 -1 C 5.804688 -1 6.375 -1.140625 6.875 -1.421875 C 7.382812 -1.710938 7.785156 -2.109375 8.078125 -2.609375 C 8.367188 -3.117188 8.515625 -3.679688 8.515625 -4.296875 C 8.515625 -4.921875 8.367188 -5.484375 8.078125 -5.984375 C 7.785156 -6.492188 7.382812 -6.890625 6.875 -7.171875 C 6.375 -7.460938 5.804688 -7.609375 5.171875 -7.609375 C 4.546875 -7.609375 3.972656 -7.460938 3.453125 -7.171875 C 2.941406 -6.890625 2.539062 -6.492188 2.25 -5.984375 C 1.957031 -5.484375 1.8125 -4.921875 1.8125 -4.296875 C 1.8125 -3.679688 1.957031 -3.117188 2.25 -2.609375 C 2.539062 -2.109375 2.941406 -1.710938 3.453125 -1.421875 C 3.972656 -1.140625 4.546875 -1 5.171875 -1 Z M 5.171875 -1 "/></g></g></g><g fill="#1d4154" fill-opacity="1"><g transform="translate(152.089284, 16.679614)"><g/></g></g><g fill="#1d4154" fill-opacity="1"><g transform="translate(155.399143, 16.679614)"><g><path d="M 6.78125 -2.15625 L 2.203125 -2.15625 L 1.25 0 L -0.015625 0 L 3.890625 -8.609375 L 5.109375 -8.609375 L 9.015625 0 L 7.71875 0 Z M 6.34375 -3.140625 L 4.484375 -7.359375 L 2.625 -3.140625 Z M 6.34375 -3.140625 "/></g></g></g><g fill="#1d4154" fill-opacity="1"><g transform="translate(164.405904, 16.679614)"><g><path d="M 5.171875 0.09375 C 4.304688 0.09375 3.523438 -0.09375 2.828125 -0.46875 C 2.128906 -0.851562 1.582031 -1.378906 1.1875 -2.046875 C 0.789062 -2.722656 0.59375 -3.472656 0.59375 -4.296875 C 0.59375 -5.128906 0.789062 -5.878906 1.1875 -6.546875 C 1.582031 -7.222656 2.128906 -7.75 2.828125 -8.125 C 3.523438 -8.507812 4.304688 -8.703125 5.171875 -8.703125 C 6.035156 -8.703125 6.816406 -8.507812 7.515625 -8.125 C 8.210938 -7.75 8.753906 -7.226562 9.140625 -6.5625 C 9.535156 -5.894531 9.734375 -5.140625 9.734375 -4.296875 C 9.734375 -3.460938 9.535156 -2.710938 9.140625 -2.046875 C 8.753906 -1.378906 8.210938 -0.851562 7.515625 -0.46875 C 6.816406 -0.09375 6.035156 0.09375 5.171875 0.09375 Z M 5.171875 -1 C 5.804688 -1 6.375 -1.140625 6.875 -1.421875 C 7.382812 -1.710938 7.785156 -2.109375 8.078125 -2.609375 C 8.367188 -3.117188 8.515625 -3.679688 8.515625 -4.296875 C 8.515625 -4.921875 8.367188 -5.484375 8.078125 -5.984375 C 7.785156 -6.492188 7.382812 -6.890625 6.875 -7.171875 C 6.375 -7.460938 5.804688 -7.609375 5.171875 -7.609375 C 4.546875 -7.609375 3.972656 -7.460938 3.453125 -7.171875 C 2.941406 -6.890625 2.539062 -6.492188 2.25 -5.984375 C 1.957031 -5.484375 1.8125 -4.921875 1.8125 -4.296875 C 1.8125 -3.679688 1.957031 -3.117188 2.25 -2.609375 C 2.539062 -2.109375 2.941406 -1.710938 3.453125 -1.421875 C 3.972656 -1.140625 4.546875 -1 5.171875 -1 Z M 5.171875 -1 "/></g></g></g><g fill="#1d4154" fill-opacity="1"><g transform="translate(37.313838, 54.856099)"><g><path d="M 12.359375 0.46875 C 10.179688 0.46875 8.21875 0.015625 6.46875 -0.890625 C 4.71875 -1.804688 3.34375 -3.085938 2.34375 -4.734375 C 1.351562 -6.378906 0.859375 -8.242188 0.859375 -10.328125 C 0.859375 -12.410156 1.351562 -14.273438 2.34375 -15.921875 C 3.34375 -17.566406 4.71875 -18.847656 6.46875 -19.765625 C 8.21875 -20.679688 10.179688 -21.140625 12.359375 -21.140625 C 14.367188 -21.140625 16.160156 -20.785156 17.734375 -20.078125 C 19.304688 -19.367188 20.609375 -18.34375 21.640625 -17 L 17.234375 -13.078125 C 15.953125 -14.691406 14.445312 -15.5 12.71875 -15.5 C 11.257812 -15.5 10.085938 -15.03125 9.203125 -14.09375 C 8.316406 -13.15625 7.875 -11.898438 7.875 -10.328125 C 7.875 -8.753906 8.316406 -7.5 9.203125 -6.5625 C 10.085938 -5.632812 11.257812 -5.171875 12.71875 -5.171875 C 14.445312 -5.171875 15.953125 -5.972656 17.234375 -7.578125 L 21.640625 -3.65625 C 20.609375 -2.320312 19.304688 -1.300781 17.734375 -0.59375 C 16.160156 0.113281 14.367188 0.46875 12.359375 0.46875 Z M 12.359375 0.46875 "/></g></g></g><g fill="#1d4154" fill-opacity="1"><g transform="translate(59.274471, 54.856099)"><g><path d="M 12.515625 0.46875 C 10.285156 0.46875 8.285156 0.0078125 6.515625 -0.90625 C 4.742188 -1.832031 3.359375 -3.117188 2.359375 -4.765625 C 1.359375 -6.410156 0.859375 -8.265625 0.859375 -10.328125 C 0.859375 -12.390625 1.359375 -14.242188 2.359375 -15.890625 C 3.359375 -17.535156 4.742188 -18.820312 6.515625 -19.75 C 8.285156 -20.675781 10.285156 -21.140625 12.515625 -21.140625 C 14.734375 -21.140625 16.726562 -20.675781 18.5 -19.75 C 20.269531 -18.820312 21.65625 -17.535156 22.65625 -15.890625 C 23.664062 -14.242188 24.171875 -12.390625 24.171875 -10.328125 C 24.171875 -8.265625 23.664062 -6.410156 22.65625 -4.765625 C 21.65625 -3.117188 20.269531 -1.832031 18.5 -0.90625 C 16.726562 0.0078125 14.734375 0.46875 12.515625 0.46875 Z M 12.515625 -5.171875 C 13.378906 -5.171875 14.160156 -5.378906 14.859375 -5.796875 C 15.554688 -6.222656 16.113281 -6.820312 16.53125 -7.59375 C 16.945312 -8.375 17.15625 -9.285156 17.15625 -10.328125 C 17.15625 -11.367188 16.945312 -12.28125 16.53125 -13.0625 C 16.113281 -13.84375 15.554688 -14.441406 14.859375 -14.859375 C 14.160156 -15.285156 13.378906 -15.5 12.515625 -15.5 C 11.648438 -15.5 10.867188 -15.285156 10.171875 -14.859375 C 9.472656 -14.441406 8.914062 -13.84375 8.5 -13.0625 C 8.082031 -12.28125 7.875 -11.367188 7.875 -10.328125 C 7.875 -9.285156 8.082031 -8.375 8.5 -7.59375 C 8.914062 -6.820312 9.472656 -6.222656 10.171875 -5.796875 C 10.867188 -5.378906 11.648438 -5.171875 12.515625 -5.171875 Z M 12.515625 -5.171875 "/></g></g></g><g fill="#1d4154" fill-opacity="1"><g transform="translate(84.304877, 54.856099)"><g><path d="M 22.046875 -20.65625 L 22.046875 0 L 16.328125 0 L 8.46875 -9.390625 L 8.46875 0 L 1.6875 0 L 1.6875 -20.65625 L 7.40625 -20.65625 L 15.265625 -11.28125 L 15.265625 -20.65625 Z M 22.046875 -20.65625 "/></g></g></g><g fill="#1d4154" fill-opacity="1"><g transform="translate(108.036535, 54.856099)"><g><path d="M 6.171875 -15.265625 L 0.125 -15.265625 L 0.125 -20.65625 L 19.1875 -20.65625 L 19.1875 -15.265625 L 13.140625 -15.265625 L 13.140625 0 L 6.171875 0 Z M 6.171875 -15.265625 "/></g></g></g><g fill="#1d4154" fill-opacity="1"><g transform="translate(127.34064, 54.856099)"><g><path d="M 10.53125 -5.1875 L 8.640625 -5.1875 L 8.640625 0 L 1.6875 0 L 1.6875 -20.65625 L 11.625 -20.65625 C 13.539062 -20.65625 15.207031 -20.335938 16.625 -19.703125 C 18.039062 -19.078125 19.128906 -18.175781 19.890625 -17 C 20.660156 -15.820312 21.046875 -14.445312 21.046875 -12.875 C 21.046875 -11.394531 20.707031 -10.101562 20.03125 -9 C 19.363281 -7.894531 18.40625 -7.019531 17.15625 -6.375 L 21.484375 0 L 14.046875 0 Z M 14.015625 -12.875 C 14.015625 -13.632812 13.78125 -14.226562 13.3125 -14.65625 C 12.84375 -15.082031 12.132812 -15.296875 11.1875 -15.296875 L 8.640625 -15.296875 L 8.640625 -10.453125 L 11.1875 -10.453125 C 12.132812 -10.453125 12.84375 -10.660156 13.3125 -11.078125 C 13.78125 -11.503906 14.015625 -12.101562 14.015625 -12.875 Z M 14.015625 -12.875 "/></g></g></g><g fill="#1d4154" fill-opacity="1"><g transform="translate(149.330793, 54.856099)"><g><path d="M 12.515625 0.46875 C 10.285156 0.46875 8.285156 0.0078125 6.515625 -0.90625 C 4.742188 -1.832031 3.359375 -3.117188 2.359375 -4.765625 C 1.359375 -6.410156 0.859375 -8.265625 0.859375 -10.328125 C 0.859375 -12.390625 1.359375 -14.242188 2.359375 -15.890625 C 3.359375 -17.535156 4.742188 -18.820312 6.515625 -19.75 C 8.285156 -20.675781 10.285156 -21.140625 12.515625 -21.140625 C 14.734375 -21.140625 16.726562 -20.675781 18.5 -19.75 C 20.269531 -18.820312 21.65625 -17.535156 22.65625 -15.890625 C 23.664062 -14.242188 24.171875 -12.390625 24.171875 -10.328125 C 24.171875 -8.265625 23.664062 -6.410156 22.65625 -4.765625 C 21.65625 -3.117188 20.269531 -1.832031 18.5 -0.90625 C 16.726562 0.0078125 14.734375 0.46875 12.515625 0.46875 Z M 12.515625 -5.171875 C 13.378906 -5.171875 14.160156 -5.378906 14.859375 -5.796875 C 15.554688 -6.222656 16.113281 -6.820312 16.53125 -7.59375 C 16.945312 -8.375 17.15625 -9.285156 17.15625 -10.328125 C 17.15625 -11.367188 16.945312 -12.28125 16.53125 -13.0625 C 16.113281 -13.84375 15.554688 -14.441406 14.859375 -14.859375 C 14.160156 -15.285156 13.378906 -15.5 12.515625 -15.5 C 11.648438 -15.5 10.867188 -15.285156 10.171875 -14.859375 C 9.472656 -14.441406 8.914062 -13.84375 8.5 -13.0625 C 8.082031 -12.28125 7.875 -11.367188 7.875 -10.328125 C 7.875 -9.285156 8.082031 -8.375 8.5 -7.59375 C 8.914062 -6.820312 9.472656 -6.222656 10.171875 -5.796875 C 10.867188 -5.378906 11.648438 -5.171875 12.515625 -5.171875 Z M 12.515625 -5.171875 "/></g></g></g><g fill="#1d4154" fill-opacity="1"><g transform="translate(174.361199, 54.856099)"><g><path d="M 1.6875 -20.65625 L 8.640625 -20.65625 L 8.640625 -5.40625 L 17.96875 -5.40625 L 17.96875 0 L 1.6875 0 Z M 1.6875 -20.65625 "/></g></g></g><g fill="#1d4154" fill-opacity="1"><g transform="translate(192.573179, 54.856099)"><g><path d="M 18.859375 -5.25 L 18.859375 0 L 1.6875 0 L 1.6875 -20.65625 L 18.484375 -20.65625 L 18.484375 -15.40625 L 8.53125 -15.40625 L 8.53125 -12.984375 L 17.265625 -12.984375 L 17.265625 -7.96875 L 8.53125 -7.96875 L 8.53125 -5.25 Z M 18.859375 -5.25 "/></g></g></g><g fill="#1d4154" fill-opacity="1"><g transform="translate(24.987056, 95.978323)"><g><path d="M 8.640625 -15.40625 L 8.640625 -11.859375 L 17.265625 -11.859375 L 17.265625 -6.609375 L 8.640625 -6.609375 L 8.640625 0 L 1.6875 0 L 1.6875 -20.65625 L 18.484375 -20.65625 L 18.484375 -15.40625 Z M 8.640625 -15.40625 "/></g></g></g><g fill="#1d4154" fill-opacity="1"><g transform="translate(43.995997, 95.978323)"><g><path d="M 1.6875 -20.65625 L 8.640625 -20.65625 L 8.640625 0 L 1.6875 0 Z M 1.6875 -20.65625 "/></g></g></g><g fill="#1d4154" fill-opacity="1"><g transform="translate(54.326944, 95.978323)"><g><path d="M 22.046875 -20.65625 L 22.046875 0 L 16.328125 0 L 8.46875 -9.390625 L 8.46875 0 L 1.6875 0 L 1.6875 -20.65625 L 7.40625 -20.65625 L 15.265625 -11.28125 L 15.265625 -20.65625 Z M 22.046875 -20.65625 "/></g></g></g><g fill="#1d4154" fill-opacity="1"><g transform="translate(78.058602, 95.978323)"><g><path d="M 15.765625 -3.59375 L 7.90625 -3.59375 L 6.515625 0 L -0.5625 0 L 8.46875 -20.65625 L 15.3125 -20.65625 L 24.34375 0 L 17.15625 0 Z M 13.84375 -8.625 L 11.828125 -13.8125 L 9.828125 -8.625 Z M 13.84375 -8.625 "/></g></g></g><g fill="#1d4154" fill-opacity="1"><g transform="translate(101.849291, 95.978323)"><g><path d="M 22.046875 -20.65625 L 22.046875 0 L 16.328125 0 L 8.46875 -9.390625 L 8.46875 0 L 1.6875 0 L 1.6875 -20.65625 L 7.40625 -20.65625 L 15.265625 -11.28125 L 15.265625 -20.65625 Z M 22.046875 -20.65625 "/></g></g></g><g fill="#1d4154" fill-opacity="1"><g transform="translate(125.580949, 95.978323)"><g><path d="M 12.359375 0.46875 C 10.179688 0.46875 8.21875 0.015625 6.46875 -0.890625 C 4.71875 -1.804688 3.34375 -3.085938 2.34375 -4.734375 C 1.351562 -6.378906 0.859375 -8.242188 0.859375 -10.328125 C 0.859375 -12.410156 1.351562 -14.273438 2.34375 -15.921875 C 3.34375 -17.566406 4.71875 -18.847656 6.46875 -19.765625 C 8.21875 -20.679688 10.179688 -21.140625 12.359375 -21.140625 C 14.367188 -21.140625 16.160156 -20.785156 17.734375 -20.078125 C 19.304688 -19.367188 20.609375 -18.34375 21.640625 -17 L 17.234375 -13.078125 C 15.953125 -14.691406 14.445312 -15.5 12.71875 -15.5 C 11.257812 -15.5 10.085938 -15.03125 9.203125 -14.09375 C 8.316406 -13.15625 7.875 -11.898438 7.875 -10.328125 C 7.875 -8.753906 8.316406 -7.5 9.203125 -6.5625 C 10.085938 -5.632812 11.257812 -5.171875 12.71875 -5.171875 C 14.445312 -5.171875 15.953125 -5.972656 17.234375 -7.578125 L 21.640625 -3.65625 C 20.609375 -2.320312 19.304688 -1.300781 17.734375 -0.59375 C 16.160156 0.113281 14.367188 0.46875 12.359375 0.46875 Z M 12.359375 0.46875 "/></g></g></g><g fill="#1d4154" fill-opacity="1"><g transform="translate(147.541581, 95.978323)"><g><path d="M 18.859375 -5.25 L 18.859375 0 L 1.6875 0 L 1.6875 -20.65625 L 18.484375 -20.65625 L 18.484375 -15.40625 L 8.53125 -15.40625 L 8.53125 -12.984375 L 17.265625 -12.984375 L 17.265625 -7.96875 L 8.53125 -7.96875 L 8.53125 -5.25 Z M 18.859375 -5.25 "/></g></g></g><g fill="#1d4154" fill-opacity="1"><g transform="translate(167.406514, 95.978323)"><g><path d="M 1.6875 -20.65625 L 8.640625 -20.65625 L 8.640625 0 L 1.6875 0 Z M 1.6875 -20.65625 "/></g></g></g><g fill="#1d4154" fill-opacity="1"><g transform="translate(177.737461, 95.978323)"><g><path d="M 10.53125 -5.1875 L 8.640625 -5.1875 L 8.640625 0 L 1.6875 0 L 1.6875 -20.65625 L 11.625 -20.65625 C 13.539062 -20.65625 15.207031 -20.335938 16.625 -19.703125 C 18.039062 -19.078125 19.128906 -18.175781 19.890625 -17 C 20.660156 -15.820312 21.046875 -14.445312 21.046875 -12.875 C 21.046875 -11.394531 20.707031 -10.101562 20.03125 -9 C 19.363281 -7.894531 18.40625 -7.019531 17.15625 -6.375 L 21.484375 0 L 14.046875 0 Z M 14.015625 -12.875 C 14.015625 -13.632812 13.78125 -14.226562 13.3125 -14.65625 C 12.84375 -15.082031 12.132812 -15.296875 11.1875 -15.296875 L 8.640625 -15.296875 L 8.640625 -10.453125 L 11.1875 -10.453125 C 12.132812 -10.453125 12.84375 -10.660156 13.3125 -11.078125 C 13.78125 -11.503906 14.015625 -12.101562 14.015625 -12.875 Z M 14.015625 -12.875 "/></g></g></g><g fill="#1d4154" fill-opacity="1"><g transform="translate(199.727624, 95.978323)"><g><path d="M 12.515625 0.46875 C 10.285156 0.46875 8.285156 0.0078125 6.515625 -0.90625 C 4.742188 -1.832031 3.359375 -3.117188 2.359375 -4.765625 C 1.359375 -6.410156 0.859375 -8.265625 0.859375 -10.328125 C 0.859375 -12.390625 1.359375 -14.242188 2.359375 -15.890625 C 3.359375 -17.535156 4.742188 -18.820312 6.515625 -19.75 C 8.285156 -20.675781 10.285156 -21.140625 12.515625 -21.140625 C 14.734375 -21.140625 16.726562 -20.675781 18.5 -19.75 C 20.269531 -18.820312 21.65625 -17.535156 22.65625 -15.890625 C 23.664062 -14.242188 24.171875 -12.390625 24.171875 -10.328125 C 24.171875 -8.265625 23.664062 -6.410156 22.65625 -4.765625 C 21.65625 -3.117188 20.269531 -1.832031 18.5 -0.90625 C 16.726562 0.0078125 14.734375 0.46875 12.515625 0.46875 Z M 12.515625 -5.171875 C 13.378906 -5.171875 14.160156 -5.378906 14.859375 -5.796875 C 15.554688 -6.222656 16.113281 -6.820312 16.53125 -7.59375 C 16.945312 -8.375 17.15625 -9.285156 17.15625 -10.328125 C 17.15625 -11.367188 16.945312 -12.28125 16.53125 -13.0625 C 16.113281 -13.84375 15.554688 -14.441406 14.859375 -14.859375 C 14.160156 -15.285156 13.378906 -15.5 12.515625 -15.5 C 11.648438 -15.5 10.867188 -15.285156 10.171875 -14.859375 C 9.472656 -14.441406 8.914062 -13.84375 8.5 -13.0625 C 8.082031 -12.28125 7.875 -11.367188 7.875 -10.328125 C 7.875 -9.285156 8.082031 -8.375 8.5 -7.59375 C 8.914062 -6.820312 9.472656 -6.222656 10.171875 -5.796875 C 10.867188 -5.378906 11.648438 -5.171875 12.515625 -5.171875 Z M 12.515625 -5.171875 "/></g></g></g><path stroke-linecap="round" transform="matrix(1.439446, 0, 0, 1.441409, 17.340055, 105.067183)" fill="none" stroke-linejoin="miter" d="M 0.499177 0.500815 L 148.708837 0.500815 " stroke="#1d4154" stroke-width="1" stroke-opacity="1" stroke-miterlimit="4"/></svg>